<svg xmlns="http://www.w3.org/2000/svg" width="512" height="512" viewBox="0 0 512 512" version="1.1">
	<path d="M 0 256.002 L 0 512.004 256.250 511.752 L 512.500 511.500 512.752 255.750 L 513.004 0 256.502 0 L 0 0 0 256.002 M 0.492 256.500 C 0.492 397.300, 0.608 454.751, 0.750 384.170 C 0.892 313.588, 0.892 198.388, 0.750 128.170 C 0.608 57.951, 0.492 115.700, 0.492 256.500 M 27.765 21.908 C 19.707 22.454, 18.791 22.740, 15.946 25.588 C 14.250 27.286, 12.454 30.436, 11.955 32.588 C 11.427 34.864, 11.038 126.878, 11.024 252.602 L 11 468.704 13.274 472.078 C 14.524 473.934, 17.066 476.476, 18.922 477.726 L 22.296 480 103.648 480 C 183.667 480, 185.033 479.967, 187 478 C 189.731 475.269, 189.606 470.538, 186.750 468.536 C 184.745 467.131, 175.814 466.966, 104.657 467.025 C 45.172 467.074, 24.455 466.793, 23.407 465.923 C 22.206 464.926, 22 433.440, 22 250.578 C 22 85.328, 22.274 36.126, 23.200 35.200 C 24.057 34.343, 30.417 34, 45.477 34 C 68.917 34, 71 33.511, 71 28.015 C 71 25.776, 69.297 22.650, 67.679 21.919 C 66.673 21.465, 34.429 21.456, 27.765 21.908 M 436 24 C 434.900 25.100, 434 26.900, 434 28 C 434 29.100, 434.900 30.900, 436 32 C 437.889 33.889, 439.333 34, 461.929 34 C 482.363 34, 486.087 34.230, 487.431 35.574 C 488.854 36.997, 488.980 57.649, 488.752 251.824 L 488.500 466.500 408.403 467 C 342.535 467.411, 328.013 467.744, 326.653 468.872 C 324.306 470.821, 324.583 475.534, 327.189 477.961 C 329.353 479.978, 330.249 480, 409.541 480 L 489.704 480 493.010 477.750 C 494.828 476.512, 497.257 474.229, 498.408 472.676 L 500.500 469.853 500.500 250.999 L 500.500 32.146 498.408 29.323 C 497.257 27.770, 494.828 25.488, 493.010 24.250 C 489.792 22.060, 489.016 22, 463.852 22 C 439.333 22, 437.897 22.103, 436 24 M 235 35.038 C 195.443 39.828, 153.761 58.030, 122.500 84.166 C 87.218 113.663, 63.030 152.589, 51.142 199 C 47.376 213.706, 44.950 228.113, 44.698 237.280 L 44.500 244.500 63 244.804 C 86.102 245.183, 90.715 244.661, 96.074 241.062 C 102.204 236.945, 105.470 231.299, 110.176 216.689 C 116.176 198.058, 120.101 194.367, 131.361 196.768 C 135.370 197.623, 136.093 197.495, 137.840 195.615 C 138.921 194.452, 142.542 190.823, 145.888 187.552 C 151.474 182.088, 152.195 181.681, 154.735 182.557 C 156.434 183.143, 158.209 184.960, 159.340 187.271 C 160.981 190.625, 161.035 191.489, 159.840 195.266 C 158.853 198.385, 157.907 199.584, 156.250 199.820 C 154.774 200.029, 154 200.826, 154 202.137 C 154 203.236, 152.032 206.551, 149.627 209.503 C 139.962 221.367, 136.679 250.067, 141.704 278.747 C 142.959 285.913, 143.067 288.557, 142.183 290.497 C 140.647 293.870, 137.429 293.731, 135.610 290.213 C 133.787 286.688, 131.336 274.741, 130.436 265 C 130.055 260.875, 129.296 256.938, 128.749 256.250 C 127.725 254.963, 120.376 254.535, 117.599 255.601 C 116.246 256.120, 116.358 256.763, 118.426 260.351 C 121.469 265.627, 125.975 279.987, 126.173 285.037 C 126.256 287.164, 125.770 289.572, 125.093 290.388 C 123.112 292.775, 118.499 293.309, 115.090 291.546 C 111.487 289.683, 109.530 286.195, 108.611 280 C 107.489 272.436, 105.098 266.475, 101.499 262.270 C 95.505 255.268, 94.252 255, 67.457 255 L 43.716 255 44.279 268.250 C 45.930 307.154, 59.853 347.400, 83 380.181 C 95.573 397.987, 118.386 419.565, 138.281 432.470 C 169.693 452.846, 208.145 464.283, 250.056 465.715 C 268.673 466.351, 282.920 465.178, 301.528 461.475 C 342.329 453.357, 373.298 437.596, 401.913 410.387 C 430.340 383.359, 449.952 349.282, 460.442 308.693 C 465.146 290.495, 466.317 282.515, 466.415 268 L 466.500 255.500 443 255.502 C 419.962 255.504, 419.417 255.552, 415.264 257.928 C 408.421 261.845, 403.646 270.117, 402.478 280.082 C 402.129 283.062, 401.387 286.706, 400.829 288.180 C 399.767 290.988, 394.708 294, 391.053 294 C 388.579 294, 384 289.818, 384 287.557 C 384 284.476, 390.259 266.357, 393.072 261.298 C 394.928 257.957, 395.584 255.861, 394.902 255.440 C 394.319 255.079, 390.952 255.093, 387.421 255.472 C 382.773 255.969, 381 256.562, 381 257.619 C 381 262.095, 378.528 280.032, 376.529 290.057 C 373.812 303.684, 370.870 310.022, 364.565 315.834 C 359.705 320.313, 358 320.471, 358 316.441 C 358 313.776, 354.832 310, 352.597 310 C 351.825 310, 349.810 311.688, 348.118 313.750 C 345.535 316.898, 344.869 317.259, 343.969 316 C 342.160 313.472, 343.405 301.644, 345.839 298.225 C 348.366 294.677, 353.586 292, 357.978 292 C 364.459 292, 369.109 300.190, 365.965 306.066 C 365.395 307.130, 365.193 308, 365.516 308 C 368.680 308, 374 278.127, 374 260.360 C 374 249.842, 372.421 238.536, 369.947 231.347 C 368.876 228.234, 368 223.438, 368 220.689 C 368 216.169, 367.622 215.330, 364.054 211.936 C 361.883 209.872, 358.755 207.885, 357.101 207.522 C 352.619 206.538, 349.359 203.506, 347.474 198.571 C 344.311 190.289, 348.608 184, 357.430 184 C 361.003 184, 362.633 184.617, 365.342 186.995 C 368.687 189.932, 369.781 191.969, 371.794 199 C 372.790 202.481, 372.796 202.472, 372.898 197.250 C 373.010 191.475, 374.355 190.525, 377.500 194 C 378.839 195.480, 380.580 196, 384.190 196 C 393.120 196, 395.699 199.291, 400.909 217.336 C 404.704 230.479, 405.941 232.974, 411.184 238.062 C 417.166 243.868, 421.842 244.842, 445.301 245.173 C 467.671 245.489, 467.264 245.627, 466.364 238.022 C 460.580 189.189, 443.796 146.784, 417.275 114 C 403.514 96.989, 378.733 75.151, 360.500 63.968 C 342.214 52.753, 314.579 42.368, 290 37.476 C 274.973 34.484, 249.054 33.336, 235 35.038 M 254.441 45.417 C 252.738 46.660, 252.437 48.471, 251.984 60.190 C 251.509 72.489, 251.233 74.012, 248.489 79.435 C 245.003 86.323, 236.472 95.362, 229.719 99.319 C 227.104 100.852, 221.260 102.989, 216.732 104.070 C 196.583 108.879, 192.082 110.873, 184.018 118.564 L 178.448 123.878 151.142 124.189 C 125.191 124.485, 123.762 124.599, 122.349 126.500 C 121.104 128.175, 120.914 132.623, 121.181 153.839 C 121.499 179.086, 121.509 179.186, 123.861 181.089 C 127.423 183.973, 134.072 183.652, 137.923 180.411 L 141 177.822 141 163.602 C 141 152.910, 141.352 148.901, 142.417 147.441 C 143.700 145.685, 145.493 145.452, 161.268 145 C 173.199 144.658, 179.181 144.101, 180.221 143.236 C 181.056 142.541, 182.534 139.841, 183.506 137.236 C 184.478 134.631, 186 131.664, 186.887 130.642 C 190.517 126.460, 206.814 120.205, 221 117.548 C 239.993 113.991, 244.134 111.574, 252.049 99.425 C 257.549 90.983, 258.914 91.122, 265.354 100.779 C 268.024 104.782, 271.643 109.151, 273.395 110.488 C 275.366 111.991, 283.197 114.837, 293.940 117.954 C 319.778 125.450, 326.330 128.910, 327.609 135.731 C 327.961 137.608, 329.358 140.461, 330.714 142.071 L 333.178 145 349.366 145 C 371.174 145, 370 144.026, 370 162.122 C 370 169.827, 370.463 176.997, 371.030 178.055 C 373.585 182.830, 383.759 184.634, 388.139 181.090 C 390.493 179.186, 390.501 179.101, 390.812 153.652 C 391.118 128.599, 391.084 128.084, 388.958 125.958 C 386.827 123.827, 386.363 123.797, 360.494 124.146 L 334.196 124.500 329.239 119.338 C 323.020 112.862, 317.451 110.033, 302.009 105.503 C 294.744 103.371, 287.676 100.572, 284.632 98.620 C 277.912 94.312, 268.935 84.517, 265.632 77.889 C 263.241 73.092, 263 71.537, 263 60.939 C 263 50.648, 262.755 48.959, 260.927 46.635 C 258.576 43.645, 257.217 43.390, 254.441 45.417 M 185.500 64.844 C 165.034 71.980, 147.529 82.106, 129.258 97.381 C 118.535 106.346, 116.685 109.344, 119.357 113.423 C 120.677 115.437, 121.860 115.996, 124.773 115.982 C 127.889 115.967, 130.059 114.732, 138 108.455 C 160.026 91.044, 185.109 77.134, 199.268 74.478 C 205.696 73.272, 208.394 67.303, 204.470 62.967 C 201.887 60.113, 197.955 60.502, 185.500 64.844 M 308.203 62.256 C 307.630 62.946, 306.867 64.683, 306.507 66.115 C 305.507 70.101, 309.201 73.298, 318.500 76.490 C 333.680 81.702, 350.721 91.439, 367.275 104.362 C 371.600 107.738, 376.749 111.738, 378.718 113.250 C 380.687 114.763, 383.376 116, 384.694 116 C 387.247 116, 392.004 111.956, 391.993 109.795 C 391.962 103.688, 365.587 83.132, 344.021 72.409 C 325.329 63.114, 310.888 59.021, 308.203 62.256 M 245.518 127.625 C 243.531 129.611, 243.888 132.912, 246.250 134.393 C 250.167 136.848, 254.154 130.048, 250.404 127.306 C 248.098 125.620, 247.483 125.660, 245.518 127.625 M 262.923 128.923 C 260.469 131.378, 260 132.651, 260 136.867 C 260 143.796, 262.711 146.853, 269.559 147.647 C 273.929 148.153, 274.986 147.911, 277.326 145.867 C 278.816 144.565, 280.403 142.150, 280.853 140.500 C 283.783 129.759, 270.600 121.247, 262.923 128.923 M 203.502 130.519 C 194.974 135.127, 191.911 143.065, 195.421 151.466 C 199 160.032, 214.141 160.228, 220.153 151.785 C 224.539 145.626, 223.207 135.148, 217.569 131.453 C 213.830 129.004, 207.131 128.558, 203.502 130.519 M 98.670 134.985 C 87.980 144.371, 70.142 179.582, 67.436 196.640 C 66.894 200.059, 67.147 201.147, 68.890 202.890 C 71.662 205.662, 75.121 205.564, 77.873 202.635 C 79.095 201.335, 82.258 194.472, 84.902 187.385 C 91.147 170.648, 97.511 158.112, 104.431 148.913 C 110.732 140.536, 111.661 136.277, 107.777 133.557 C 104.555 131.300, 102.500 131.622, 98.670 134.985 M 230.165 133.750 C 228.786 136.415, 227.697 150, 228.863 150 C 230.553 150, 236.001 144.899, 237.587 141.831 C 238.421 140.219, 238.825 138.025, 238.486 136.956 C 237.014 132.317, 231.922 130.355, 230.165 133.750 M 402 134 C 398.876 137.124, 399.578 140.146, 404.991 146.892 C 411.125 154.534, 419.558 171.397, 425.515 187.932 C 427.978 194.770, 430.974 201.408, 432.171 202.682 C 434.885 205.571, 438.352 205.648, 441.120 202.880 C 443.797 200.203, 443.353 196.156, 438.932 182.943 C 433.277 166.039, 417.669 137.683, 411.729 133.523 C 408.711 131.409, 404.379 131.621, 402 134 M 247 139 C 245.489 141.823, 247.430 145.222, 250.318 144.811 C 253.174 144.404, 253.889 140.123, 251.404 138.306 C 248.987 136.539, 248.255 136.655, 247 139 M 300.882 140.882 C 297.607 144.158, 297 145.420, 297 148.959 C 297 152.262, 297.621 153.775, 299.923 156.077 C 304.281 160.435, 308.869 160.128, 314.241 155.117 L 318.404 151.233 316.452 145.447 C 314.035 138.283, 312.799 137, 308.311 137 C 305.525 137, 303.932 137.832, 300.882 140.882 M 214 141.500 C 214 143.452, 214.511 144, 216.333 144 C 219.424 144, 220.142 143.134, 218.930 140.869 C 217.398 138.007, 214 138.443, 214 141.500 M 309.250 145.662 C 306.360 146.828, 309.138 153, 312.552 153 C 314.491 153, 315.520 148.332, 313.989 146.487 C 312.734 144.974, 311.491 144.758, 309.250 145.662 M 151.223 153.557 C 149.679 154.638, 149 156.135, 149 158.460 C 149 161.542, 152.631 165.424, 195.010 207.653 C 220.316 232.869, 241.016 254.193, 241.010 255.040 C 241.001 256.460, 190.128 308.105, 188.040 308.814 C 187.532 308.987, 185.041 306.287, 182.504 302.814 C 167.169 281.820, 162.635 255.389, 169.049 224.379 C 171.046 214.725, 171.176 212.840, 170.036 210.088 C 167.594 204.190, 163 199.776, 163 203.326 C 163 204.055, 161.911 205.674, 160.581 206.924 C 157.407 209.906, 154.483 216.861, 151.844 227.703 C 150.149 234.670, 149.709 239.516, 149.732 251 C 149.782 276.379, 154.036 288.877, 163.711 292.070 C 166.266 292.913, 168.252 294.937, 171.837 300.351 C 174.447 304.291, 177.623 308.923, 178.895 310.644 C 180.441 312.736, 180.988 314.461, 180.546 315.855 C 180.183 317, 173.972 323.581, 166.746 330.479 C 147.110 349.223, 145.170 352.215, 149.530 357.033 C 153.751 361.697, 159.386 358.132, 182.275 336.317 C 187.652 331.192, 192.420 327, 192.870 327 C 193.321 327, 194.547 327.953, 195.595 329.119 C 201.710 335.920, 221.564 347.147, 232.903 350.217 C 244.066 353.238, 269.172 353.211, 280.500 350.165 C 291.255 347.274, 301.040 342.197, 310.931 334.376 L 319.141 327.884 329.610 337.692 C 348.863 355.728, 352.896 359, 355.875 359 C 359.207 359, 363 355.315, 363 352.078 C 363 350.378, 350.824 337.739, 316 303.288 C 290.150 277.716, 269 256.276, 269 255.644 C 269 254.691, 326.279 197.071, 354.317 169.819 C 361.690 162.653, 362.116 162.003, 361.817 158.392 C 361.443 153.869, 357.998 151.282, 353.766 152.344 C 352.339 152.702, 344.578 159.071, 336.521 166.498 C 328.463 173.924, 321.629 180, 321.332 180 C 321.036 180, 318.590 178.019, 315.897 175.597 C 308.227 168.701, 300.244 163.826, 290.806 160.275 C 277.267 155.180, 273.596 154.692, 253.048 155.260 C 236.773 155.709, 233.397 156.100, 225.500 158.444 C 214.639 161.668, 205.745 166.382, 196.889 173.606 C 193.252 176.573, 189.745 179, 189.094 179 C 188.443 179, 182.193 173.689, 175.205 167.197 C 157.659 150.897, 156.203 150.069, 151.223 153.557 M 220.982 172.300 C 215.584 173.821, 206.035 179.474, 200.500 184.426 L 196.500 188.005 208.500 199.657 C 226.273 216.916, 253.844 242, 255.041 242 C 256.187 242, 255.597 242.528, 288.500 212.039 C 301.150 200.317, 311.883 190.072, 312.350 189.272 C 314.214 186.087, 302.623 177.268, 292.042 173.820 C 286.072 171.875, 282.876 171.660, 255.500 171.358 C 233.378 171.114, 224.314 171.362, 220.982 172.300 M 150.465 192.112 C 149.706 194.501, 152.140 197.649, 153.904 196.559 C 155.357 195.661, 155.300 192.700, 153.800 191.200 C 152.077 189.477, 151.227 189.709, 150.465 192.112 M 144.187 204.250 C 144.448 206.960, 144.958 207.553, 147.256 207.817 C 150.495 208.190, 151.690 206.158, 150.042 203.078 C 149.366 201.815, 147.938 201, 146.401 201 C 144.152 201, 143.908 201.358, 144.187 204.250 M 131.040 205.874 C 125.251 209.727, 124.939 210.280, 121.110 223.500 C 119.310 229.717, 116.879 234.289, 111.406 241.750 L 109.756 244 117.313 244 C 129.151 244, 129.400 243.801, 130.813 233.189 C 131.473 228.235, 133.156 220.233, 134.555 215.408 C 135.953 210.582, 136.963 205.645, 136.799 204.437 C 136.510 202.314, 136.317 202.362, 131.040 205.874 M 337.017 206.483 L 332.617 210.966 335.239 220.233 C 339.439 235.080, 340.280 240.731, 340.262 254 C 340.243 268.709, 338.925 276.786, 334.897 286.886 C 331.703 294.896, 331.834 297.512, 335.513 299.188 C 339.120 300.831, 342.744 299.370, 345.326 295.231 C 349.049 289.262, 353.690 277.153, 355.571 268.500 C 357.856 257.993, 357.900 236.375, 355.658 226.094 C 353.094 214.339, 346.442 202, 342.669 202 C 341.980 202, 339.437 204.017, 337.017 206.483 M 373.518 205.250 C 371.509 211.240, 370.947 215.345, 371.995 216.377 C 372.840 217.210, 373.481 217.030, 374.477 215.683 C 375.689 214.041, 375.977 214.410, 377.457 219.499 C 378.358 222.598, 379.605 228.816, 380.229 233.317 C 380.853 237.818, 381.787 242.063, 382.304 242.750 C 383.405 244.213, 396.570 244.505, 397.446 243.087 C 397.757 242.584, 396.202 238.820, 393.991 234.722 C 391.480 230.066, 389.261 224.016, 388.076 218.597 C 385.952 208.875, 385.129 207.498, 380.207 205.442 C 375.968 203.671, 374.066 203.616, 373.518 205.250 M 249.311 273.126 C 236.732 283.913, 199.948 319.346, 200.278 320.357 C 201.621 324.473, 223.022 336.375, 235 339.667 C 244.204 342.197, 268.849 342.188, 278 339.652 C 291.782 335.832, 310 325.431, 310 321.383 C 310 319.112, 257.767 269, 255.400 269 C 254.697 269, 251.957 270.857, 249.311 273.126 M 151.500 291.481 C 150.950 291.670, 149.251 292.101, 147.725 292.438 C 143.364 293.401, 141 296.425, 141 301.040 C 141 310.824, 151.429 321.008, 155.914 315.603 C 156.552 314.835, 157.959 314.438, 159.042 314.721 C 160.125 315.004, 161.649 314.706, 162.430 314.058 C 163.313 313.325, 165.197 313.134, 167.424 313.552 C 170.545 314.137, 171 313.971, 171 312.248 C 171 309.092, 163.740 295.750, 161 293.870 C 158.475 292.137, 153.343 290.846, 151.500 291.481 M 155.693 306.768 C 154.337 307.069, 153.963 307.940, 154.193 310.257 C 154.634 314.689, 156.749 314.852, 157.563 310.518 C 158.327 306.442, 158.212 306.210, 155.693 306.768 M 70.875 308.900 C 69.097 310.340, 68.556 311.732, 68.642 314.650 C 68.916 323.971, 79.621 348.584, 90.520 364.957 C 100.172 379.455, 104.494 382.506, 109 378 C 112.398 374.602, 111.561 370.704, 105.940 363.755 C 100.240 356.709, 88.841 334.237, 83.999 320.500 C 80.949 311.847, 77.558 307, 74.555 307 C 73.822 307, 72.166 307.855, 70.875 308.900 M 432.547 309.250 C 430.919 310.678, 428.395 315.700, 425.637 323 C 418.875 340.898, 415.729 346.703, 400.755 368.912 C 398.454 372.325, 398.541 375.541, 401 378 C 405.526 382.526, 410.557 379.618, 418.778 367.728 C 429.822 351.752, 443 322.475, 443 313.915 C 443 307.514, 437.383 305.007, 432.547 309.250 M 125.280 316.020 C 124.059 316.511, 122.848 317.945, 122.589 319.207 C 122.329 320.468, 121.837 334.634, 121.495 350.686 C 120.886 379.261, 120.916 379.916, 122.936 381.936 C 124.923 383.923, 126.045 384, 153.025 384 L 181.050 384 182.078 381.295 C 183.777 376.825, 182.266 371.441, 178.347 368 L 174.860 364.938 159.385 365.054 C 148.609 365.136, 143.469 364.804, 142.455 363.963 C 141.270 362.979, 141 359.022, 141 342.600 C 141 320.563, 140.749 319.473, 134.989 316.494 C 131.774 314.832, 128.616 314.678, 125.280 316.020 M 378.445 316.068 C 376.765 316.557, 374.290 318.126, 372.945 319.556 C 370.542 322.112, 370.494 322.506, 370.177 342.517 C 369.952 356.690, 369.492 363.176, 368.664 363.864 C 368.009 364.408, 360.352 364.998, 351.648 365.176 L 335.822 365.500 333.456 368.254 C 330.309 371.915, 329.271 377.611, 331.142 380.942 L 332.579 383.500 359.755 383.500 C 384.505 383.500, 387.090 383.341, 388.715 381.715 C 390.328 380.103, 390.533 377.173, 390.843 351.397 C 391.221 319.929, 390.924 317.866, 385.756 316.065 C 382.315 314.865, 382.584 314.865, 378.445 316.068 M 193.400 344.400 C 190.365 347.435, 190 348.385, 190 353.252 C 190 369.856, 210.450 376.326, 218.659 362.319 C 220.715 358.811, 221.136 357.053, 220.700 353.802 C 219.991 348.517, 218.025 346.698, 209.631 343.565 C 200.298 340.080, 197.580 340.220, 193.400 344.400 M 303.544 342.578 C 290.102 347.538, 288.091 362.421, 300.013 368.725 C 308.401 373.161, 315.977 370.810, 319.986 362.529 C 325.958 350.193, 315.920 338.013, 303.544 342.578 M 198 354 C 198 357.282, 199.917 358.009, 201.989 355.513 C 203.643 353.521, 202.549 351, 200.031 351 C 198.441 351, 198 351.651, 198 354 M 310.169 357.161 C 310.351 358.447, 311.175 359.500, 312 359.500 C 314.169 359.500, 313.870 355.599, 311.669 355.175 C 310.249 354.901, 309.912 355.347, 310.169 357.161 M 214 373.191 C 210.755 374.743, 207.482 375.364, 202.263 375.421 C 194.164 375.509, 193.111 376.379, 195.501 381.003 C 197.286 384.453, 200.694 387.008, 203.473 386.978 C 204.588 386.966, 207.522 386.039, 209.994 384.918 C 221.311 379.785, 234.116 382.063, 241.996 390.611 C 248.874 398.074, 250.300 402.454, 250.942 418.096 C 251.516 432.076, 252.379 435, 255.931 435 C 256.859 435, 258.491 434.362, 259.559 433.583 C 261.284 432.324, 261.558 430.516, 262.020 417.333 C 262.513 403.266, 262.692 402.223, 265.491 397.136 C 273.314 382.918, 289.512 377.168, 302.500 384 C 305.637 385.650, 308.798 387, 309.525 387 C 311.844 387, 316.744 382.120, 317.289 379.267 C 318.012 375.487, 317.439 374.951, 313.970 376.160 C 311.501 377.021, 309.342 376.664, 301.495 374.101 C 290.742 370.587, 288.775 370.474, 273.500 372.493 C 261.207 374.118, 259.470 375.209, 258.387 381.982 C 257.736 386.049, 256.434 388.767, 255.556 387.889 C 255.251 387.585, 254.601 385.188, 254.111 382.563 C 253.620 379.938, 252.607 377.183, 251.860 376.440 C 250.318 374.908, 237.188 372.455, 226 371.608 C 219.635 371.126, 217.819 371.366, 214 373.191 M 123 392 C 119.792 395.208, 120.512 398.111, 125.750 403.096 C 141.320 417.915, 166.714 432.680, 191.110 441.098 C 200.430 444.314, 200.799 444.362, 203.360 442.684 C 205.451 441.314, 206 440.159, 206 437.132 C 206 432.100, 204.386 430.786, 193.483 426.938 C 176.416 420.914, 159.443 411.264, 134.641 393.483 C 129.119 389.525, 125.887 389.113, 123 392 M 382.059 390.726 C 381.266 391.039, 376.248 394.546, 370.909 398.520 C 353.778 411.269, 337.217 420.419, 319.097 427.146 C 313.376 429.270, 308.088 431.512, 307.347 432.127 C 306.606 432.742, 306 434.920, 306 436.967 C 306 441.254, 308.610 444.250, 312.344 444.250 C 318.095 444.250, 351.287 428.861, 365.321 419.687 C 376.291 412.517, 388.944 402.216, 390.219 399.418 C 391.691 396.188, 390.477 392.539, 387.477 391.171 C 384.695 389.904, 384.239 389.866, 382.059 390.726" stroke="none" fill="black" fill-rule="evenodd"/>
</svg>